<svg viewBox="0 0 2426 694" fill="none" xmlns="http://www.w3.org/2000/svg">
<path fill-rule="evenodd" clip-rule="evenodd" fill="currentColor" d="M346.011 0C418.537 0 482.69 5.89354 521.718 14.9265C599.532 31.3019 660.81 92.755 677.139 170.791C686.146 209.931 692.023 274.267 692.023 347C692.023 419.733 686.146 484.069 677.139 523.209C660.81 601.245 599.532 662.698 521.718 679.074C482.69 688.107 418.537 694 346.011 694C273.486 694 209.333 688.107 170.305 679.074C92.4908 662.698 31.2127 601.245 14.8839 523.209C5.87675 484.069 0 419.733 0 347C0 274.267 5.87675 209.931 14.8839 170.791C31.2127 92.755 92.4908 31.3019 170.305 14.9265C209.333 5.89354 273.486 0 346.011 0ZM391.693 501.687C408.651 505.256 422.588 517.058 429.155 532.733C431.322 537.904 436.592 541.074 442.176 540.562C443.844 540.41 445.265 540.275 446.441 540.157C473.542 537.448 494.844 533.671 507.224 529.264C507.244 529.253 507.269 529.242 507.298 529.232C515.613 526.098 521.53 518.049 521.53 508.615C521.53 508.457 521.529 508.3 521.525 508.144C521.524 508.067 521.522 507.991 521.519 507.914C521.5 507.534 521.478 507.147 521.453 506.751C521.445 506.663 521.438 506.575 521.429 506.487C521.405 506.24 521.391 506.001 521.385 505.77C519.272 477.448 502.121 411.142 476.504 335.461C447.219 248.943 416.593 178.899 402.782 165.237C402.776 165.228 402.769 165.219 402.762 165.212C400.578 162.935 398.034 161.007 395.223 159.52C394.126 158.892 392.735 158.291 391.084 157.724C391.041 157.709 390.998 157.694 390.938 157.674C381.881 154.602 365.158 152.541 345.993 152.541C326.861 152.541 310.138 154.602 301.064 157.679C301.021 157.694 300.978 157.709 300.934 157.724C299.284 158.291 297.893 158.892 296.796 159.52C293.984 161.007 291.441 162.935 289.236 165.237C275.426 178.899 244.8 248.943 215.514 335.461C189.897 411.142 172.746 477.448 170.634 505.77C170.628 506.001 170.613 506.24 170.59 506.487C170.581 506.575 170.573 506.663 170.566 506.751C170.553 506.945 170.542 507.137 170.531 507.328C170.519 507.525 170.509 507.721 170.499 507.914C170.492 508.147 170.488 508.38 170.488 508.615C170.488 518.049 176.405 526.098 184.721 529.232C184.75 529.242 184.774 529.253 184.794 529.264C197.186 533.675 218.514 537.455 245.649 540.164C246.697 540.269 247.941 540.388 249.381 540.52C255.204 541.057 260.708 537.775 263.006 532.397C269.63 516.89 283.489 505.23 300.326 501.687C310.473 499.338 327.153 497.806 346.009 497.806C364.866 497.806 381.546 499.338 391.693 501.687Z"/>
<path fill-rule="evenodd" clip-rule="evenodd" fill="currentColor" d="M1105.34 231.205H1171.47V520.603H1105.34V469.752C1084.68 505.821 1049.25 526.516 1003.19 526.516C926.437 526.516 865.03 459.109 865.03 375.737C865.03 292.366 926.437 225.55 1003.19 225.55C1049.25 225.55 1084.68 246.245 1105.34 282.314V231.205ZM2095.4 231.205H2161.53V520.603H2095.4V469.752C2074.74 505.821 2039.31 526.516 1993.26 526.516C1916.5 526.516 1855.09 459.109 1855.09 375.737C1855.09 292.366 1916.5 225.55 1993.26 225.55C2039.31 225.55 2074.74 246.245 2095.4 282.314V231.205ZM1018.84 463.623C1069.03 463.623 1106.82 425.78 1106.82 375.521C1106.82 325.852 1069.03 288.01 1018.84 288.01C969.836 288.01 930.866 327.035 930.866 375.521C930.866 424.598 969.836 463.623 1018.84 463.623ZM2005.44 463.623C2055.63 463.623 2093.42 425.78 2093.42 375.521C2093.42 325.852 2055.63 288.01 2005.44 288.01C1956.43 288.01 1917.46 327.035 1917.46 375.521C1917.46 424.598 1956.43 463.623 2005.44 463.623ZM1270.48 86.75C1293.51 86.75 1312.99 106.263 1312.99 128.731C1312.99 152.383 1293.51 171.304 1270.48 171.304C1247.46 171.304 1228.56 152.383 1228.56 128.731C1228.56 106.263 1247.46 86.75 1270.48 86.75ZM1238.01 230.408H1303.55V519.806H1238.01V230.408ZM1509.42 224.753C1522.05 224.753 1534.2 226.631 1542.97 229.968C1548.13 231.932 1552.68 234.102 1556.21 235.934L1529.54 291.848C1521.14 289.297 1512.03 288.021 1502.92 288.021C1471.04 288.021 1435.61 314.629 1435.61 365.48V519.806H1370.07V230.408H1435.61V272.056C1448.6 244.266 1481.08 224.753 1509.42 224.753ZM1838.58 446.486C1816.73 494.381 1765.95 525.719 1705.73 525.719C1620.11 525.719 1554.58 461.269 1554.58 375.532C1554.58 289.795 1619.52 224.753 1705.14 224.753C1761.23 224.753 1808.47 252.544 1829.72 295.117L1774.22 326.455C1762.41 303.395 1736.43 288.021 1705.14 288.021C1655.54 288.021 1619.52 325.864 1619.52 375.532C1619.52 424.609 1656.13 462.451 1705.73 462.451C1739.38 462.451 1767.14 446.486 1780.13 419.878L1838.58 446.486ZM2293.6 86.75V519.806H2228.06V86.75H2293.6ZM2425.67 86.75V519.806H2360.13V86.75H2425.67Z"/>
</svg>
