<svg viewBox="0 0 2503 780" fill="none" xmlns="http://www.w3.org/2000/svg">
<path fill-rule="evenodd" clip-rule="evenodd" d="M1144.34 274.205H1210.47V563.603H1144.34V512.752C1123.68 548.821 1088.25 569.516 1042.19 569.516C965.436 569.516 904.03 502.109 904.03 418.737C904.03 335.366 965.436 268.55 1042.19 268.55C1088.25 268.55 1123.68 289.245 1144.34 325.314V274.205ZM2134.4 274.205H2200.53V563.603H2134.4V512.752C2113.74 548.821 2078.31 569.516 2032.26 569.516C1955.5 569.516 1894.09 502.109 1894.09 418.737C1894.09 335.366 1955.5 268.55 2032.26 268.55C2078.31 268.55 2113.74 289.245 2134.4 325.314V274.205ZM1057.84 506.623C1108.03 506.623 1145.82 468.78 1145.82 418.521C1145.82 368.852 1108.03 331.01 1057.84 331.01C1008.84 331.01 969.866 370.035 969.866 418.521C969.866 467.598 1008.84 506.623 1057.84 506.623ZM2044.44 506.623C2094.63 506.623 2132.42 468.78 2132.42 418.521C2132.42 368.852 2094.63 331.01 2044.44 331.01C1995.43 331.01 1956.46 370.035 1956.46 418.521C1956.46 467.598 1995.43 506.623 2044.44 506.623ZM1309.48 129.75C1332.51 129.75 1351.99 149.263 1351.99 171.731C1351.99 195.383 1332.51 214.304 1309.48 214.304C1286.46 214.304 1267.56 195.383 1267.56 171.731C1267.56 149.263 1286.46 129.75 1309.48 129.75ZM1277.01 273.408H1342.55V562.806H1277.01V273.408ZM1548.42 267.753C1561.04 267.753 1573.2 269.631 1581.97 272.968C1587.13 274.932 1591.68 277.102 1595.21 278.934L1568.54 334.848C1560.14 332.297 1551.03 331.021 1541.92 331.021C1510.04 331.021 1474.61 357.629 1474.61 408.48V562.806H1409.07V273.408H1474.61V315.056C1487.6 287.266 1520.08 267.753 1548.42 267.753ZM1877.58 489.486C1855.73 537.381 1804.95 568.719 1744.73 568.719C1659.11 568.719 1593.58 504.269 1593.58 418.532C1593.58 332.795 1658.52 267.753 1744.14 267.753C1800.23 267.753 1847.47 295.544 1868.72 338.117L1813.22 369.455C1801.41 346.395 1775.43 331.021 1744.14 331.021C1694.54 331.021 1658.52 368.864 1658.52 418.532C1658.52 467.609 1695.13 505.451 1744.73 505.451C1778.38 505.451 1806.14 489.486 1819.12 462.878L1877.58 489.486ZM2332.6 129.75V562.806H2267.06V129.75H2332.6ZM2464.66 129.75V562.806H2399.13V129.75H2464.66Z" fill="black"/>
<path fill-rule="evenodd" clip-rule="evenodd" d="M387.011 43C459.537 43 523.69 48.8935 562.718 57.9265C640.532 74.3019 701.81 135.755 718.139 213.791C727.146 252.931 733.023 317.267 733.023 390C733.023 462.733 727.146 527.069 718.139 566.209C701.81 644.245 640.532 705.698 562.718 722.074C523.69 731.107 459.537 737 387.011 737C314.486 737 250.333 731.107 211.305 722.074C133.491 705.698 72.2127 644.245 55.8839 566.209C46.8767 527.069 41 462.733 41 390C41 317.267 46.8767 252.931 55.8839 213.791C72.2127 135.755 133.491 74.3019 211.305 57.9265C250.333 48.8935 314.486 43 387.011 43ZM432.693 544.687C449.651 548.256 463.588 560.058 470.155 575.733C472.322 580.904 477.592 584.074 483.176 583.562C484.844 583.41 486.265 583.275 487.441 583.157C514.542 580.448 535.844 576.671 548.224 572.264C548.244 572.253 548.269 572.242 548.298 572.232C556.613 569.098 562.53 561.049 562.53 551.615C562.53 551.457 562.529 551.3 562.525 551.144C562.524 551.067 562.522 550.991 562.519 550.914C562.5 550.534 562.478 550.147 562.453 549.751C562.445 549.663 562.438 549.575 562.429 549.487C562.405 549.24 562.391 549.001 562.385 548.77C560.272 520.448 543.121 454.142 517.504 378.461C488.219 291.943 457.593 221.899 443.782 208.237C443.776 208.228 443.769 208.219 443.762 208.212C441.578 205.935 439.034 204.007 436.223 202.52C435.126 201.892 433.735 201.291 432.084 200.724C432.041 200.709 431.998 200.694 431.938 200.674C422.881 197.602 406.158 195.541 386.993 195.541C367.861 195.541 351.138 197.602 342.064 200.679C342.021 200.694 341.978 200.709 341.934 200.724C340.284 201.291 338.893 201.892 337.796 202.52C334.984 204.007 332.441 205.935 330.236 208.237C316.426 221.899 285.8 291.943 256.514 378.461C230.897 454.142 213.746 520.448 211.634 548.77C211.628 549.001 211.613 549.24 211.59 549.487C211.581 549.575 211.573 549.663 211.566 549.751C211.553 549.945 211.542 550.137 211.531 550.328C211.519 550.525 211.509 550.721 211.499 550.914C211.492 551.147 211.488 551.38 211.488 551.615C211.488 561.049 217.405 569.098 225.721 572.232C225.75 572.242 225.774 572.253 225.794 572.264C238.186 576.675 259.514 580.455 286.649 583.164C287.697 583.269 288.941 583.388 290.381 583.52C296.204 584.057 301.708 580.775 304.006 575.397C310.63 559.89 324.489 548.23 341.326 544.687C351.473 542.338 368.153 540.806 387.009 540.806C405.866 540.806 422.546 542.338 432.693 544.687Z" fill="#00B388"/>
</svg>
