<svg viewBox="0 0 2503 780" fill="none" xmlns="http://www.w3.org/2000/svg">
<path fill-rule="evenodd" clip-rule="evenodd" d="M780.845 390C780.845 605.391 606.047 780 390.422 780C174.798 780 0 605.391 0 390C0 174.609 174.798 0 390.422 0C606.047 0 780.845 174.609 780.845 390ZM178.941 493.373C181.304 493.373 183.26 491.633 183.594 489.366C183.61 489.144 183.627 488.924 183.645 488.703C183.645 488.697 183.645 488.69 183.646 488.683C183.646 488.68 183.646 488.677 183.647 488.674C186.037 459.732 210.31 436.987 239.901 436.987C269.492 436.987 293.765 459.732 296.155 488.674H296.349C296.349 491.269 298.455 493.373 301.053 493.373L470.395 493.369C470.429 493.371 470.463 493.372 470.497 493.372C470.527 493.373 470.557 493.373 470.587 493.373C473.185 493.373 475.291 491.269 475.292 488.674C477.682 459.732 501.955 436.987 531.546 436.987C561.137 436.987 585.41 459.732 587.805 488.674C587.805 491.269 589.911 493.373 592.509 493.373C592.53 493.373 592.551 493.373 592.572 493.373C592.614 493.372 592.656 493.372 592.697 493.373H625.625C630.821 493.373 635.033 489.166 635.033 483.975V455.783C635.033 450.603 630.837 446.402 625.656 446.385H606.746C603.787 446.385 601 444.995 599.223 442.631C597.454 440.278 595.986 438.447 594.818 437.137C579.319 419.747 556.738 408.795 531.596 408.795H169.342C166.744 408.795 164.638 410.898 164.638 413.493V474.578C162.04 474.578 159.934 476.682 159.934 479.277V488.674C159.934 491.269 162.04 493.373 164.638 493.373L178.75 493.369C178.813 493.372 178.877 493.373 178.941 493.373ZM620.921 427.59C623.519 427.59 625.625 425.486 625.625 422.891V366.44C625.625 356.826 623.656 347.314 619.839 338.489C599.388 291.201 577.797 261.383 555.066 249.036C517.736 228.758 479.029 220.843 379.472 220.843C323.712 220.843 264.253 225.265 201.096 234.109C180.19 237.036 164.638 254.901 164.638 275.988V385.301C164.638 387.896 166.744 390 169.342 390H531.596C559.128 390 584.148 400.744 602.681 418.265C604.482 419.966 606.925 422.55 610.011 426.014C610.903 427.017 612.182 427.59 613.525 427.59H620.921ZM188.158 277.228C188.158 274.633 190.264 272.53 192.862 272.53H263.421C266.019 272.53 268.125 274.633 268.125 277.228V347.71C268.125 350.305 266.019 352.409 263.421 352.409H192.862C190.264 352.409 188.158 350.305 188.158 347.71V277.228ZM385.724 277.228C385.724 274.633 387.83 272.53 390.428 272.53H460.987C463.585 272.53 465.691 274.633 465.691 277.228V347.71C465.691 350.305 463.585 352.409 460.987 352.409H390.428C387.83 352.409 385.724 350.305 385.724 347.71V277.228ZM286.941 277.228C286.941 274.633 289.047 272.53 291.645 272.53H362.204C364.802 272.53 366.908 274.633 366.908 277.228V347.71C366.908 350.305 364.802 352.409 362.204 352.409H291.645C289.047 352.409 286.941 350.305 286.941 347.71V277.228ZM484.506 277.228C484.506 274.633 486.612 272.53 489.21 272.53H529.894C551.61 272.53 571.498 284.676 581.396 303.985C582.248 305.648 583.183 307.326 584.199 309.018C590.961 320.277 596.92 332.614 602.075 346.026C603.006 348.449 601.795 351.167 599.37 352.097C598.832 352.303 598.26 352.409 597.684 352.409H489.21C486.612 352.409 484.506 350.305 484.506 347.71V277.228ZM202.27 493.373C202.27 514.134 219.118 530.963 239.901 530.963C260.685 530.963 277.533 514.134 277.533 493.373C277.533 472.612 260.685 455.783 239.901 455.783C219.118 455.783 202.27 472.612 202.27 493.373ZM258.717 493.373C258.717 503.753 250.293 512.168 239.901 512.168C229.51 512.168 221.085 503.753 221.085 493.373C221.085 482.993 229.51 474.578 239.901 474.578C250.293 474.578 258.717 482.993 258.717 493.373ZM493.914 493.373C493.914 514.134 510.763 530.963 531.546 530.963C552.329 530.963 569.178 514.134 569.178 493.373C569.178 472.612 552.329 455.783 531.546 455.783C510.763 455.783 493.914 472.612 493.914 493.373ZM550.362 493.373C550.362 503.753 541.938 512.168 531.546 512.168C521.154 512.168 512.73 503.753 512.73 493.373C512.73 482.993 521.154 474.578 531.546 474.578C541.938 474.578 550.362 482.993 550.362 493.373Z" fill="#FD1015"/>
<path d="M1025.49 375.478H1127.75C1118.95 356.026 1099.37 342.492 1076.62 342.492C1053.88 342.492 1034.3 356.026 1025.49 375.478ZM1179.88 418.36C1178.74 420.332 1176.61 421.658 1174.16 421.658H1025.49C1034.3 441.11 1053.88 454.644 1076.62 454.644C1087.54 454.644 1097.73 451.527 1106.34 446.135C1108.26 444.934 1110.69 443.06 1113.61 440.512C1115.94 438.484 1119.08 437.659 1122.11 438.282L1160.81 446.252C1164.37 446.987 1166.67 450.475 1165.94 454.044C1165.78 454.83 1165.47 455.58 1165.04 456.257C1164.64 456.877 1164.28 457.433 1163.94 457.925C1154.36 471.986 1141.47 483.613 1126.39 491.685C1111.56 499.622 1094.62 504.123 1076.62 504.123C1018.31 504.123 971.042 456.864 971.042 398.568C971.042 340.272 1018.31 293.013 1076.62 293.013C1134.94 293.013 1182.21 340.272 1182.21 398.568C1182.21 405.333 1181.57 411.949 1180.35 418.36H1179.88ZM898.454 490.691V216.379C898.454 213.134 900.738 210.337 903.92 209.684L939.727 202.339C943.429 201.579 947.046 203.961 947.806 207.659C947.899 208.111 947.946 208.572 947.946 209.034V490.691C947.946 494.466 944.882 497.526 941.104 497.526H905.296C901.517 497.526 898.454 494.466 898.454 490.691ZM1390.26 497.526H1350.53C1347.61 497.526 1345.01 495.668 1344.06 492.902L1280.99 308.656C1279.77 305.085 1281.67 301.199 1285.25 299.978C1285.96 299.735 1286.71 299.61 1287.46 299.61H1322.49C1325.42 299.61 1328.02 301.469 1328.97 304.234L1367.16 415.813C1367.77 417.598 1369.72 418.551 1371.51 417.94C1372.51 417.598 1373.29 416.813 1373.64 415.813L1411.83 304.234C1412.78 301.469 1415.38 299.61 1418.31 299.61H1458.03C1460.95 299.61 1463.55 301.469 1464.5 304.234L1502.7 415.813C1503.31 417.598 1505.25 418.551 1507.04 417.94C1508.04 417.598 1508.83 416.813 1509.17 415.813L1547.37 304.234C1548.31 301.469 1550.92 299.61 1553.84 299.61H1588.87C1592.65 299.61 1595.71 302.67 1595.71 306.445C1595.71 307.197 1595.59 307.945 1595.35 308.656L1532.27 492.902C1531.33 495.668 1528.73 497.526 1525.8 497.526H1486.07C1483.14 497.526 1480.54 495.668 1479.6 492.902L1441.4 381.336C1440.79 379.551 1438.85 378.598 1437.06 379.209C1436.06 379.551 1435.27 380.336 1434.93 381.336L1396.74 492.902C1395.79 495.668 1393.19 497.526 1390.26 497.526ZM1762.91 485.853C1745.99 497.383 1725.54 504.123 1703.52 504.123C1645.21 504.123 1597.94 456.864 1597.94 398.568C1597.94 340.272 1645.21 293.013 1703.52 293.013C1725.54 293.013 1745.99 299.754 1762.91 311.283V306.208C1762.91 302.564 1765.87 299.61 1769.51 299.61H1805.8C1809.45 299.61 1812.4 302.564 1812.4 306.208V490.929C1812.4 494.572 1809.45 497.526 1805.8 497.526H1769.51C1765.87 497.526 1762.91 494.572 1762.91 490.929V485.853ZM1706.82 454.644C1737.8 454.644 1762.91 429.538 1762.91 398.568C1762.91 367.598 1737.8 342.492 1706.82 342.492C1675.84 342.492 1650.73 367.598 1650.73 398.568C1650.73 429.538 1675.84 454.644 1706.82 454.644ZM2000.47 311.283V306.208C2000.47 302.564 2003.43 299.61 2007.07 299.61H2043.36C2047.01 299.61 2049.96 302.564 2049.96 306.208V490.929H2049.95C2049.07 549.375 2001.4 596.483 1942.73 596.483C1927.4 596.483 1912.83 593.268 1899.64 587.476C1896.14 585.94 1891.61 583.457 1886.05 580.025C1882.11 577.595 1880.38 572.758 1881.89 568.381L1893.59 534.421C1894.78 530.976 1898.53 529.145 1901.98 530.332C1902.83 530.627 1903.62 531.095 1904.29 531.708C1908.65 535.705 1912.42 538.553 1915.6 540.251C1923.69 544.561 1932.93 547.005 1942.73 547.005C1974.07 547.005 1999.57 522.047 2000.45 490.929H2000.47V485.853C1983.55 497.383 1963.1 504.123 1941.08 504.123C1882.77 504.123 1835.5 456.864 1835.5 398.568C1835.5 340.272 1882.77 293.013 1941.08 293.013C1963.1 293.013 1983.55 299.754 2000.47 311.283ZM1944.38 454.644C1975.36 454.644 2000.47 429.538 2000.47 398.568C2000.47 367.598 1975.36 342.492 1944.38 342.492C1913.4 342.492 1888.29 367.598 1888.29 398.568C1888.29 429.538 1913.4 454.644 1944.38 454.644ZM2178.64 504.123C2120.33 504.123 2073.06 456.864 2073.06 398.568C2073.06 340.272 2120.33 293.013 2178.64 293.013C2236.95 293.013 2284.22 340.272 2284.22 398.568C2284.22 456.864 2236.95 504.123 2178.64 504.123ZM2178.64 454.644C2209.62 454.644 2234.73 429.538 2234.73 398.568C2234.73 367.598 2209.62 342.492 2178.64 342.492C2147.66 342.492 2122.55 367.598 2122.55 398.568C2122.55 429.538 2147.66 454.644 2178.64 454.644ZM2501.99 388.672V490.929C2501.99 494.572 2499.03 497.526 2495.39 497.526H2455.8C2452.15 497.526 2449.2 494.572 2449.2 490.929V391.971H2449.08C2449.16 390.881 2449.2 389.781 2449.2 388.672C2449.2 363.168 2428.52 342.492 2403 342.492C2377.49 342.492 2356.81 363.168 2356.81 388.672C2356.81 389.781 2356.85 390.881 2356.93 391.971H2356.81V490.929C2356.81 494.572 2353.86 497.526 2350.21 497.526H2313.92C2310.27 497.526 2307.32 494.572 2307.32 490.929V306.208C2307.32 302.564 2310.27 299.61 2313.92 299.61H2350.21C2353.86 299.61 2356.81 302.564 2356.81 306.208V306.787C2371.25 298.045 2388.19 293.013 2406.3 293.013C2459.15 293.013 2501.99 335.841 2501.99 388.672Z" fill="black"/>
</svg>
