<svg viewBox="0 0 2503 780" fill="none" xmlns="http://www.w3.org/2000/svg">
<path fill-rule="evenodd" clip-rule="evenodd" fill="currentColor" d="M365.604 352.874C363.88 351.151 362.911 348.814 362.911 346.376C362.911 343.939 363.88 341.602 365.604 339.879L432.94 272.505C436.534 268.912 442.36 268.912 445.954 272.505L582.002 408.554C591.923 418.858 591.832 435.189 581.798 445.382L442.143 585.056C440.42 586.788 438.079 587.765 435.636 587.77H300.833C297.041 587.771 293.639 585.441 292.268 581.906C290.898 578.37 291.841 574.356 294.643 571.8L433.07 433.298C434.787 431.583 435.751 429.255 435.751 426.829C435.751 424.402 434.787 422.074 433.07 420.359L365.585 352.874H365.604ZM272.798 420.433C274.523 422.156 275.492 424.493 275.492 426.931C275.492 429.368 274.523 431.706 272.798 433.428L205.462 500.802C201.868 504.395 196.042 504.395 192.448 500.802L56.3629 364.754C46.4597 354.447 46.5586 338.13 56.586 327.944L196.259 188.233C197.987 186.51 200.327 185.541 202.766 185.537H337.55C341.342 185.536 344.745 187.866 346.116 191.402C347.486 194.937 346.543 198.952 343.741 201.507L205.313 340.009C203.602 341.729 202.634 344.052 202.618 346.479C202.618 348.84 203.547 351.201 205.313 352.967L272.798 420.452V420.433ZM750.101 423.501C764.063 436.217 785.666 443.839 806.394 443.839C821.249 443.839 832.663 436.626 832.663 426.475C832.663 395.577 733.165 406.564 733.165 340.492C733.165 301.117 771.276 276.558 811.935 276.558C838.613 276.558 867.819 286.746 881.372 297.306L855.549 337.09C844.952 329.505 831.009 323.147 816.136 323.147C800.91 323.147 788.194 329.096 788.194 339.693C788.194 366.315 887.73 355.737 887.73 426.922C887.73 466.278 849.191 490.428 806.004 490.428C777.616 490.428 747.536 480.668 723.405 462.914L750.101 423.501ZM974.512 414.187C985.889 430.247 1004.39 439.735 1024.08 439.601C1054.97 439.601 1078.29 415.879 1078.29 383.698C1078.29 354.045 1057.54 327.404 1025.34 327.404C1005.34 327.34 986.489 336.744 974.512 352.762V414.187ZM919.483 280.816H972.411V297.306C988.492 284.181 1009.26 276.558 1032.53 276.558C1088.46 276.558 1133.33 323.147 1133.33 383.698C1133.33 411.658 1123.59 437.054 1107.49 455.7C1089.27 476.875 1060.09 490.428 1029.58 490.428C1008.83 490.428 991.039 484.479 974.512 471.781V587.826H919.483V280.816ZM1297.31 357.02C1295.6 338.801 1279.09 321.009 1256.65 321.009C1233.78 321.009 1215.13 338.392 1212.59 357.02H1297.31ZM1348.56 453.562C1328.65 477.284 1296.04 490.428 1264.27 490.428C1202.86 490.428 1156.7 448.078 1156.7 383.679C1156.7 326.531 1195.65 276.558 1256.65 276.558C1313.41 276.558 1353.64 324.43 1353.64 381.597C1353.64 387.081 1353.21 392.603 1352.35 397.25H1210.08C1213.03 426.066 1236.29 445.94 1265.53 445.94C1288.83 445.94 1307.46 432.852 1317.22 422.255L1348.56 453.562ZM1385.41 486.189V280.816H1438.36V297.306C1454.67 283.809 1475.2 276.466 1496.38 276.558C1524.73 276.558 1550.59 289.256 1567.52 309.594C1581.06 325.657 1588.68 346.404 1588.68 381.597V486.189H1533.65V377.358C1533.65 357.02 1529 346.423 1521.35 338.801C1514.15 331.606 1503.14 327.404 1490.45 327.404C1467.15 327.404 1448.08 342.184 1440.46 352.762V486.189H1385.41ZM1777.21 352.762C1765.24 336.74 1746.39 327.334 1726.38 327.404C1694.18 327.404 1673.46 354.045 1673.46 383.679C1673.46 415.86 1696.73 439.601 1727.65 439.601C1747.33 439.745 1765.84 430.254 1777.21 414.187V352.762ZM1779.31 486.189V469.681C1762.36 484.089 1742.91 490.428 1722.15 490.428C1691.66 490.428 1662.86 476.857 1644.66 455.7C1627.57 435.61 1618.25 410.056 1618.39 383.679C1618.39 323.147 1663.27 276.558 1719.19 276.558C1741.63 276.558 1761.09 282.916 1777.19 295.595V185.5H1832.26V486.189H1779.31ZM2005.75 357.02C2004.06 338.801 1987.53 321.009 1965.09 321.009C1942.22 321.009 1923.58 338.392 1921.05 357.02H2005.75ZM2056.97 453.562C2037.08 477.284 2004.47 490.428 1972.71 490.428C1911.31 490.428 1865.15 448.078 1865.15 383.679C1865.15 326.531 1904.09 276.558 1965.09 276.558C2021.83 276.558 2062.06 324.43 2062.06 381.597C2062.06 387.081 2061.65 392.603 2060.82 397.25H1918.52C1921.46 426.066 1944.75 445.94 1973.98 445.94C1997.27 445.94 2015.92 432.852 2025.66 422.255L2056.97 453.562ZM2113.69 423.501C2127.65 436.217 2149.25 443.839 2170.02 443.839C2184.84 443.839 2196.27 436.626 2196.27 426.475C2196.27 395.577 2096.73 406.564 2096.73 340.492C2096.73 301.117 2134.85 276.558 2175.5 276.558C2202.18 276.558 2231.42 286.746 2244.96 297.306L2219.14 337.09C2208.56 329.505 2194.58 323.147 2179.74 323.147C2164.5 323.147 2151.78 329.096 2151.78 339.693C2151.78 366.315 2251.32 355.737 2251.32 426.922C2251.32 466.278 2212.78 490.428 2169.59 490.428C2141.2 490.428 2111.14 480.668 2087.01 462.914L2113.69 423.501ZM2381.7 373.119L2494.78 486.189H2420.66L2333.84 397.25V486.189H2278.79V185.5H2333.84V347.278L2404.56 280.816H2482.09L2381.7 373.119Z"/>
</svg>
