<svg viewBox="0 0 2503 780" fill="none" xmlns="http://www.w3.org/2000/svg">
<g clip-path="url(#clip0)">
<path d="M472.484 135.029C526.606 133.788 563.787 173.125 563.787 217.322H563.888C563.888 247.673 553.87 272.177 518.363 292.174C428.024 342.978 327.439 473.697 316.432 640.765C316.102 645.727 311.359 646.663 310.421 641.778C231.241 401.68 369.59 137.357 472.484 135.029Z" fill-rule="evenodd" clip-rule="evenodd" fill="currentColor" />
<path d="M2243.9 429.013V290.917C2243.93 244.012 2243.93 197.077 2243.88 150.113C2243.86 138.552 2240.69 135.365 2229.24 135.365C2222.85 135.365 2216.45 135.356 2210.05 135.346C2197.25 135.326 2184.45 135.306 2171.65 135.365C2162.54 135.418 2158.84 139.083 2158.52 148.183C2158.43 151.512 2158.46 154.841 2158.49 158.174V158.206L2158.49 158.245C2158.51 159.906 2158.52 161.568 2158.52 163.232C2158.64 176.528 2161.14 179.06 2174.59 179.166C2188.33 179.273 2191.6 182.601 2191.6 196.57V432.04C2191.64 439.529 2188.93 444.611 2180.83 445.531C2158.5 448.098 2158.5 448.098 2158.5 470.689C2158.51 471.566 2158.42 472.51 2158.34 473.456L2158.34 473.458C2158.14 475.702 2157.93 477.958 2158.93 479.365C2161.52 483.1 2165.43 488.412 2168.98 488.412C2199.65 489.076 2230.32 488.921 2260.99 488.766L2264.66 488.748C2271.31 488.748 2274.96 484.924 2274.96 478.125V460.421C2274.89 448.665 2272.14 445.903 2260.45 445.673C2246.52 445.39 2243.9 442.858 2243.9 429.013Z" fill-rule="evenodd" clip-rule="evenodd" fill="currentColor"/>
<path d="M1962.54 254.411C1962.54 288.935 1962.54 323.458 1962.64 357.965C1962.64 360.016 1963.31 362.068 1963.97 364.114C1964.28 365.051 1964.58 365.988 1964.82 366.923C1965.78 366.511 1966.79 366.163 1967.8 365.814C1969.99 365.054 1972.19 364.295 1973.84 362.886C1985.82 352.703 1997.73 342.422 2009.64 332.146C2021.64 321.788 2033.64 311.433 2045.7 301.186C2058.3 290.563 2071.16 279.941 2088.08 276.665C2105.41 273.213 2119.5 282.207 2121.54 298.035C2123.58 313.863 2112.68 325.317 2094.96 326.256C2074.56 327.12 2054.58 332.246 2036.29 341.305C2025.07 346.952 2023.88 351.113 2030.49 361.364C2041.27 377.96 2052.17 394.482 2063.07 411.003C2068.08 418.609 2073.1 426.215 2078.11 433.829C2083.92 442.681 2092.28 445.319 2102.51 445.142C2118.23 444.894 2120.23 447.16 2120.23 462.846C2120.23 475.917 2120.23 482.419 2116.97 485.653C2113.76 488.854 2107.35 488.854 2094.6 488.854C2092.16 488.854 2089.71 488.809 2087.27 488.764L2087.26 488.764C2081.74 488.663 2076.21 488.561 2070.7 488.978C2058.61 489.881 2050.78 484.623 2044.58 474.567C2034.27 457.836 2023.6 441.319 2012.93 424.8C2009.52 419.521 2006.11 414.241 2002.71 408.954C1994.08 395.534 1991.49 395.339 1978.77 405.572C1969.54 412.99 1961.35 420.586 1962.45 434.006C1963.16 442.539 1966.28 446.186 1974.85 446.788C1986.65 447.638 1988.9 450.152 1989.12 462.032C1989.61 489.27 1988.94 489.262 1962.82 488.929L1962.54 488.925C1948.38 488.742 1934.21 488.782 1920.05 488.821C1910.89 488.846 1901.72 488.871 1892.56 488.837C1881.93 488.837 1878.72 485.614 1878.53 475.31C1878.45 471.769 1878.48 468.228 1878.5 464.688C1878.51 462.917 1878.53 461.147 1878.53 459.376C1878.7 449.143 1882.07 445.885 1892.54 445.62C1907.73 445.23 1910 442.982 1910.01 428.092V197.083C1910.01 182.619 1906.84 179.379 1892.51 179.237C1881.43 179.096 1878.63 176.281 1878.53 164.932C1878.53 163.093 1878.5 161.251 1878.48 159.407V159.405C1878.43 155.055 1878.38 150.699 1878.61 146.36C1878.99 139.455 1882.72 135.454 1889.9 135.436C1896.69 135.436 1903.49 135.416 1910.28 135.397C1923.87 135.357 1937.45 135.318 1951.04 135.436C1959.24 135.542 1962.5 139.898 1962.52 149.883C1962.58 184.749 1962.58 219.592 1962.54 254.411Z" fill-rule="evenodd" clip-rule="evenodd" fill="currentColor"/>
<path fill-rule="evenodd" clip-rule="evenodd" d="M989.764 583.296L989.722 583.296H989.701C979.472 583.32 969.245 583.343 959.011 583.273C949.442 583.273 946.252 580.015 946.04 570.632C945.921 565.025 945.921 559.419 946.04 553.812C946.252 544.163 949.725 540.87 959.631 540.693H964.061C973.364 540.357 977.652 536.356 977.67 527.043C977.753 463.035 977.753 399.021 977.67 335.002C977.67 325.618 973.275 321.865 963.015 321.316C947.067 320.484 946.04 319.404 946.04 303.753C946.04 277.497 946.04 277.497 972.425 277.497H1013.18C1024.04 277.497 1026.84 279.675 1028.23 290.351C1029.2 297.928 1032.46 297.787 1037.56 294.122C1038.05 293.78 1038.52 293.422 1038.98 293.065L1038.99 293.063C1039.22 292.884 1039.45 292.706 1039.69 292.529C1092.66 253.402 1153.6 280.56 1175.96 327.69C1196.96 371.951 1189.66 427.366 1157.14 462.244C1132.12 489.138 1090.42 504.062 1047.27 481.914C1030.74 473.434 1030.14 474 1030.14 492.944C1030.14 496.673 1030.13 500.401 1030.12 504.13V504.15C1030.09 511.623 1030.07 519.099 1030.14 526.583C1030.28 536.71 1034.02 540.392 1044.03 540.64H1053.78C1060.02 540.923 1063.84 544.181 1064.16 550.466C1064.57 558.133 1064.57 565.815 1064.16 573.482C1063.81 580.21 1059.63 583.273 1052.93 583.237C1043.8 583.227 1034.69 583.24 1025.58 583.253H1025.55C1018.73 583.263 1011.91 583.273 1005.08 583.273C999.975 583.273 994.869 583.284 989.764 583.296ZM1030.07 384.84V404.315C1030.05 405.955 1030.02 407.509 1029.99 408.983L1029.99 408.991L1029.99 408.997L1029.99 409.003C1029.57 430.626 1029.48 435.099 1061.57 445.124C1063.26 445.637 1064.98 446.062 1066.71 446.416C1092.8 451.852 1116.77 439.636 1127.35 415.168C1131.72 405.309 1134.05 394.669 1134.21 383.888C1134.37 373.106 1132.34 362.404 1128.26 352.423C1119.4 329.85 1099.21 316.377 1075.52 319.475C1065.78 320.745 1056.34 325.219 1047.12 329.586L1047.12 329.586C1045.41 330.393 1043.72 331.196 1042.03 331.974C1033.56 335.887 1030.09 343.748 1030.09 353.025C1030.09 363.636 1030.08 374.241 1030.07 384.84Z" fill="currentColor"/>
<path d="M1681.84 323.268C1680 325.178 1678.04 327.209 1675.89 329.389C1675.02 325.721 1674.38 322.001 1673.96 318.253C1673.8 313.35 1673.79 308.446 1673.78 303.545C1673.78 299.298 1673.77 295.053 1673.66 290.811C1673.43 281.18 1669.73 277.444 1660.12 277.338C1650.67 277.267 1641.22 277.291 1631.77 277.314C1627.05 277.326 1622.32 277.338 1617.6 277.338C1604.58 277.338 1598.03 277.338 1594.74 280.608C1591.42 283.91 1591.42 290.549 1591.42 303.894C1591.44 319.085 1592.91 320.661 1607.71 321.245C1619.24 321.706 1622.91 325.406 1622.91 336.967V426.357C1622.91 443.619 1621.65 444.929 1604.59 445.62C1595.39 445.992 1591.74 449.497 1591.44 458.562C1591.35 461.891 1591.38 465.228 1591.41 468.563V468.603C1591.42 470.274 1591.44 471.943 1591.44 473.611C1591.55 485.791 1594.54 488.854 1606.52 488.854H1694.41C1710.06 488.854 1712.49 486.446 1712.49 471.15C1712.52 446.912 1712.52 446.859 1687.96 445.584C1680.27 445.195 1675.81 441.778 1675.66 433.705C1675.31 410.405 1674.91 387.118 1674.46 363.842C1674.3 354.973 1677.97 347.891 1686.12 344.757L1686.75 344.516C1702.96 338.275 1719.26 332.005 1735.98 327.53C1749.59 323.883 1759.18 331.001 1759.76 344.881C1760.68 366.209 1760.82 387.526 1760.97 408.826C1761.02 415.25 1761.06 421.672 1761.13 428.092C1761.29 442.84 1759.3 444.805 1744.72 445.673C1735.86 446.204 1732.65 449.426 1732.48 458.279C1732.39 462.61 1732.42 466.933 1732.45 471.259C1732.46 473.422 1732.48 475.587 1732.48 477.754C1732.49 484.959 1736.25 488.854 1743.34 488.854C1773.46 488.972 1803.59 488.972 1833.71 488.854C1840.73 488.819 1844.55 485.119 1844.55 477.789V460.97C1844.5 448.506 1841.93 445.885 1829.72 445.673C1816.36 445.514 1813.49 442.734 1813.49 429.579C1813.47 421.153 1813.52 412.727 1813.56 404.3C1813.65 386.17 1813.74 368.039 1813.24 349.909C1812.92 338.259 1811.7 326.132 1808.16 315.155C1795.1 275.373 1758.74 262.661 1723.74 285.677C1715.53 291.023 1708.32 297.832 1701.13 304.605L1701.12 304.615L1701.12 304.616L1701.12 304.619C1698.63 306.97 1696.14 309.317 1693.61 311.596C1689.71 315.103 1686.08 318.867 1681.84 323.268Z" fill-rule="evenodd" clip-rule="evenodd" fill="currentColor"/>
<path d="M829.813 493.068C804.331 492.732 779.966 487.757 757.94 474.46C741.531 464.528 734.266 447.904 738.448 431.775C742.151 417.346 754.29 409.591 770.167 411.485C783.989 413.15 793.699 423.648 793.061 438.042C792.707 446.169 795.4 449.355 803.091 451.02C818.561 454.348 833.959 455.959 849.482 452.082C853.481 451.078 857.288 449.428 860.752 447.195C873.298 439.016 873.28 424.18 859.99 417.523C852.441 413.699 844.272 411.063 836.114 408.431L836.113 408.43C833.318 407.528 830.524 406.627 827.757 405.678C822.001 403.681 816.194 401.837 810.39 399.994L810.389 399.993C800.759 396.934 791.138 393.879 781.774 390.134C762.512 382.415 747.645 370.216 745.607 347.448C743.356 322.201 752.695 302.018 773.817 288.474C802.17 270.239 833.481 269.389 865.005 278.206C876.541 281.677 887.525 286.768 897.628 293.325C909.022 300.407 914.302 311.844 913.806 325.76C913.221 342.137 903.174 352.6 887.226 352.476C870.427 352.335 858.874 342.013 859.973 325.725C860.522 316.979 856.606 314.535 850.049 314.11C838.953 313.399 827.829 313.246 816.718 313.65C812.837 313.809 808.779 315.934 805.288 317.988C791.467 326.167 791.201 341.552 805.554 348.599C813.96 352.714 822.987 355.598 831.997 358.477L831.999 358.477C835.354 359.549 838.705 360.62 842.022 361.753C846.815 363.386 851.645 364.92 856.477 366.455C865.686 369.38 874.899 372.306 883.859 375.917C905.123 384.38 919.494 398.933 919.849 423.436C920.203 447.178 910.174 465.555 889.937 478.072C871.544 489.456 851.183 493.351 829.813 493.068Z" fill-rule="evenodd" clip-rule="evenodd" fill="currentColor"/>
<path d="M2403.18 324.709L2403.18 324.706C2405.57 322.344 2407.53 320.401 2409.3 318.289C2421.45 303.665 2434.72 290.174 2451.93 281.693C2459.25 278.018 2467.21 275.76 2475.37 275.036C2478.83 274.66 2482.33 275.013 2485.65 276.071C2488.96 277.129 2492.02 278.869 2494.62 281.179C2497.22 283.489 2499.31 286.318 2500.75 289.483C2502.19 292.649 2502.95 296.08 2502.98 299.557C2503.51 314.022 2492.35 325.672 2476.81 326.114C2453.95 326.681 2432.74 332.948 2412.29 342.721C2401.85 347.714 2396.64 355.008 2397.1 367.029C2397.59 379.611 2397.73 392.211 2397.86 404.811C2397.96 413.718 2398.05 422.626 2398.27 431.527C2398.56 442.539 2401.94 445.514 2412.86 445.691C2434.9 446.062 2435.29 446.452 2435.27 468.919C2435.46 472.159 2435.39 475.409 2435.08 478.639C2434.12 484.835 2430.81 488.907 2423.97 488.907H2325.69C2318.6 488.907 2314.86 484.782 2314.51 477.895C2314.21 471.716 2314.35 465.502 2314.51 459.323C2314.67 449.639 2318.21 446.062 2327.82 445.708C2344.44 445.089 2346 443.513 2346 427.189V336.985C2346 325.512 2342.24 321.759 2330.69 321.334C2316.21 320.785 2314.53 319.068 2314.51 304.798C2314.51 291.11 2314.51 284.29 2317.92 280.891C2321.31 277.515 2328.07 277.515 2341.53 277.515H2382.29C2392.92 277.515 2396.63 281.215 2396.79 291.82C2396.84 295.503 2396.85 299.185 2396.86 302.869V302.884C2396.88 308.635 2396.9 314.388 2397.09 320.148C2397.03 321.505 2397.43 322.885 2398.04 324.958L2398.04 324.959L2398.04 324.965L2398.05 324.989C2398.36 326.046 2398.73 327.283 2399.11 328.788C2400.6 327.262 2401.94 325.929 2403.18 324.709Z" fill-rule="evenodd" clip-rule="evenodd" fill="currentColor"/>
<path d="M1299.91 324.701C1299.09 325.542 1298.26 326.382 1297.43 327.212L1293.39 325.849C1293.39 321.858 1293.38 317.867 1293.37 313.876V313.864C1293.34 305.871 1293.32 297.876 1293.39 289.873C1293.46 281.8 1289.38 277.657 1281.57 277.657C1262.08 277.462 1242.59 277.427 1223.09 277.657C1215.77 277.745 1211.72 281.782 1211.72 289.413V306.214C1211.77 319.121 1213.65 321.051 1226.48 321.352C1239.68 321.67 1243.22 325.229 1243.22 338.401V426.003C1243.21 443.389 1241.91 444.735 1224.28 445.744C1215.38 446.204 1211.93 449.533 1211.73 458.137C1211.64 462.469 1211.67 466.801 1211.7 471.128V471.143C1211.72 473.301 1211.73 475.457 1211.73 477.612C1211.82 484.694 1215.47 488.854 1222.56 488.854C1255.34 488.961 1288.11 488.961 1320.87 488.854C1327.89 488.837 1331.93 485.207 1331.93 477.931V461.997C1331.91 448.24 1329.33 445.673 1315.31 445.673H1309.99C1298.86 445.514 1295.27 442.008 1295.13 430.73C1295.02 422.49 1294.97 414.254 1294.92 406.022V406.021C1294.84 392.412 1294.76 378.814 1294.42 365.223C1294.15 354.725 1298.62 348.085 1307.8 343.518C1328.39 333.214 1349.83 326.681 1373.01 326.132C1389.48 325.742 1399.96 315.049 1399.59 299.486C1399.21 283.924 1388.07 273.532 1371.39 275.072C1363.15 275.816 1353.83 277.993 1347.45 282.773C1336.69 290.849 1326.7 299.974 1316.72 309.098L1316.71 309.101C1313.04 312.458 1309.36 315.816 1305.65 319.121C1303.63 320.89 1301.77 322.795 1299.91 324.701Z" fill-rule="evenodd" clip-rule="evenodd" fill="currentColor"/>
<path d="M1521.5 360.886V430.801C1521.5 442.097 1525.04 445.46 1536.31 445.655C1550.49 445.903 1553.17 448.559 1553.18 462.935C1553.18 475.964 1553.18 482.453 1549.94 485.684C1546.72 488.89 1540.3 488.89 1527.52 488.89H1451.33C1439.83 488.89 1436.89 485.827 1436.85 474.16C1436.85 472.389 1436.84 470.619 1436.83 468.848C1436.8 465.307 1436.78 461.766 1436.85 458.225C1437.05 449.603 1440.54 446.133 1449.25 445.691C1451.02 445.608 1452.79 445.636 1454.57 445.663C1455.46 445.677 1456.34 445.691 1457.23 445.691C1464.72 445.496 1468.91 441.459 1468.94 434.13C1469.1 400.491 1469.15 366.852 1468.94 333.214C1468.94 325.105 1464.14 321.776 1454.43 321.334C1437.06 320.555 1436.83 320.307 1436.83 302.85C1436.83 290.173 1436.83 283.838 1440 280.674C1443.17 277.515 1449.49 277.515 1462.12 277.515H1507.29C1518.13 277.515 1521.46 280.968 1521.46 291.909C1521.58 307.882 1521.55 323.882 1521.52 339.883V339.887L1521.52 340.01C1521.51 346.969 1521.5 353.928 1521.5 360.886Z" fill-rule="evenodd" clip-rule="evenodd" fill="currentColor"/>
<path d="M1503.83 178.166C1499.66 176.496 1495.2 175.668 1490.7 175.732C1471.33 175.838 1455.23 191.223 1455 209.919C1455.02 214.523 1455.95 219.077 1457.73 223.321C1459.52 227.565 1462.12 231.416 1465.4 234.655C1468.67 237.894 1472.55 240.456 1476.82 242.196C1481.09 243.937 1485.65 244.82 1490.26 244.797C1494.87 244.774 1499.42 243.844 1503.67 242.061C1507.92 240.278 1511.78 237.676 1515.02 234.405C1518.26 231.133 1520.82 227.255 1522.57 222.994C1524.31 218.732 1525.19 214.169 1525.17 209.565C1525.15 205.076 1524.25 200.634 1522.5 196.497C1520.75 192.36 1518.21 188.61 1515 185.463C1511.8 182.317 1508 179.837 1503.83 178.166Z" fill-rule="evenodd" clip-rule="evenodd" fill="currentColor"/>
<path d="M44.9147 223.344C46.7622 194.297 71.1845 168.618 103.984 170.846C113.171 171.454 124.028 172.239 140.25 184.319C213.29 247.934 256.339 360.272 243.356 457.341C242.723 462.127 237.206 461.95 235.763 457.341C215.34 387.699 147.843 307.598 87.812 283.793C59.3909 272.498 43.0672 251.682 44.7882 223.318L44.9147 223.344Z" fill-rule="evenodd" clip-rule="evenodd" fill="currentColor"/>
<path d="M0.123302 459.455C2.37724 492.999 30.2853 509.427 56.0154 509.427C114.693 509.427 188.06 537.148 231.239 573.158C234.809 576.134 235.442 575.142 233.113 567.004C215.638 505.638 122.215 402.845 54.268 402.845C46.9222 402.694 39.6252 404.074 32.8368 406.896C26.0484 409.719 19.9161 413.923 14.8266 419.245C9.73703 424.566 5.80061 430.888 3.26568 437.813C0.730677 444.738 -0.347836 452.116 0.0980173 459.48L0.123302 459.455Z" fill-rule="evenodd" clip-rule="evenodd" fill="currentColor"/>
<path d="M574.869 509.427C600.599 509.427 628.507 492.999 630.761 459.455L630.787 459.48C631.233 452.116 630.154 444.738 627.619 437.813C625.084 430.888 621.148 424.566 616.058 419.245C610.969 413.923 604.836 409.719 598.048 406.896C591.26 404.074 583.962 402.694 576.617 402.845C508.67 402.845 415.246 505.638 397.772 567.004C395.442 575.142 396.075 576.134 399.646 573.158C442.825 537.148 516.191 509.427 574.869 509.427Z" fill-rule="evenodd" clip-rule="evenodd" fill="currentColor"/>
</g>
<defs>
<clipPath id="clip0">
<rect width="2503" height="780" fill="white"/>
</clipPath>
</defs>
</svg>
