<svg viewBox="0 0 2503 780" fill="none" xmlns="http://www.w3.org/2000/svg">
<path fill-rule="evenodd" clip-rule="evenodd" d="M48 65C21.4902 65 0 86.4904 0 113V667C0 693.51 21.4902 715 48 715H602C628.51 715 650 693.51 650 667V113C650 86.4904 628.51 65 602 65H48ZM149 204C143.477 204 139 208.477 139 214V567C139 572.523 143.477 577 149 577H502C507.523 577 512 572.523 512 567V214C512 208.477 507.523 204 502 204H428C422.477 204 418 208.477 418 214V480H233V214C233 208.477 228.523 204 223 204H149Z" fill="currentColor"/>
<path d="M950.902 279.719V424.738C950.805 444.855 944.457 461.311 931.859 474.104C919.359 486.896 902.367 494.074 880.883 495.637L873.412 495.93C850.072 495.93 831.469 489.631 817.602 477.033C803.734 464.436 796.703 447.102 796.508 425.031V279.719H824.34V424.152C824.34 439.582 828.588 451.594 837.084 460.188C845.58 468.684 857.689 472.932 873.412 472.932C889.33 472.932 901.488 468.684 909.887 460.188C918.383 451.691 922.631 439.729 922.631 424.299V279.719H950.902Z" fill="currentColor"/>
<path d="M1143.41 409.504V493H1115.29V279.719H1193.95C1217.29 279.719 1235.55 285.676 1248.73 297.59C1262.02 309.504 1268.66 325.275 1268.66 344.904C1268.66 365.607 1262.16 381.574 1249.17 392.805C1236.28 403.938 1217.78 409.504 1193.66 409.504H1143.41ZM1143.41 386.506H1193.95C1208.99 386.506 1220.51 382.99 1228.52 375.959C1236.53 368.83 1240.53 358.576 1240.53 345.197C1240.53 332.502 1236.53 322.346 1228.52 314.729C1220.51 307.111 1209.53 303.156 1195.56 302.863H1143.41V386.506Z" fill="currentColor"/>
<path d="M1452.67 409.504V493H1424.54V279.719H1503.21C1526.55 279.719 1544.81 285.676 1557.99 297.59C1571.27 309.504 1577.91 325.275 1577.91 344.904C1577.91 365.607 1571.42 381.574 1558.43 392.805C1545.54 403.938 1527.04 409.504 1502.91 409.504H1452.67ZM1452.67 386.506H1503.21C1518.25 386.506 1529.77 382.99 1537.78 375.959C1545.79 368.83 1549.79 358.576 1549.79 345.197C1549.79 332.502 1545.79 322.346 1537.78 314.729C1529.77 307.111 1518.78 303.156 1504.82 302.863H1452.67V386.506Z" fill="currentColor"/>
<path d="M1762.07 470.002H1863.15V493H1733.8V279.719H1762.07V470.002Z" fill="currentColor"/>
<path d="M2135.79 394.416H2043.35V470.002H2150.73V493H2015.23V279.719H2149.26V302.863H2043.35V371.418H2135.79V394.416Z" fill="currentColor"/>
<path d="M2383.96 406.721H2333.86V493H2305.59V279.719H2376.2C2400.22 279.719 2418.68 285.188 2431.57 296.125C2444.55 307.062 2451.05 322.98 2451.05 343.879C2451.05 357.16 2447.44 368.732 2440.21 378.596C2433.08 388.459 2423.12 395.832 2410.33 400.715L2460.42 491.242V493H2430.25L2383.96 406.721ZM2333.86 383.723H2377.07C2391.04 383.723 2402.12 380.109 2410.33 372.883C2418.63 365.656 2422.78 355.988 2422.78 343.879C2422.78 330.695 2418.82 320.588 2410.91 313.557C2403.1 306.525 2391.77 302.961 2376.93 302.863H2333.86V383.723Z" fill="currentColor"/>
</svg>
