<svg xmlns="http://www.w3.org/2000/svg" width="128" height="31" viewBox="0 0 128 31">
  <g fill="#335EEA" fill-rule="evenodd" transform="translate(-1 -2)">
    <g transform="rotate(16 2.77 24.173)">
      <path fill-opacity=".3" d="M21.0408867,17.267331 C21.0381578,17.2260883 21.0338873,17.1933874 21.0333001,17.1517474 C21.0155836,15.8947743 21.9863189,14.8532118 23.2408027,14.7303331 C23.3124199,14.7233171 23.3843609,14.7203881 23.4563278,14.7196484 C24.1654527,14.7123238 24.8081593,14.9968132 25.2631611,15.4611087 L18.7245896,3.6234802 L28.7509255,3.48807094 C28.8639429,3.48656942 28.9851818,3.55716556 29.0785613,3.65579221 C29.1719365,3.75441464 29.2374482,3.88106757 29.2390069,3.99164269 L29.4509897,19.0309792 C29.4525199,19.1416008 29.3901042,19.2347879 29.2990477,19.3006968 C29.2079869,19.3666099 29.0882853,19.4052449 28.9752721,19.4067707 L23.8282915,19.4762721 L23.2392525,19.4842265 L23.2185481,19.4845055 C22.0442267,19.3108194 21.1182856,18.4368694 21.0408867,17.267331 Z M28.9966372,20.9228358 C29.5614785,20.9152111 30.0661625,20.7134607 30.4276897,20.3753955 C30.7892213,20.0373303 31.007592,19.5629503 30.9997981,19.0100662 L30.7878482,3.9707297 C30.7800544,3.41784141 30.5479009,2.9143531 30.1764899,2.5509962 C29.8050745,2.18763507 29.2943973,1.96440537 28.7295603,1.97203007 L17.8490171,2.11894933 L16.6766863,0 C15.1052233,0.488602391 13.9764518,1.94347547 14.0003731,3.64072032 C14.0098855,4.31565882 14.2014764,4.94861496 14.527303,5.4919301 L19.7034685,18.1338043 C19.8421474,18.6589959 20.1022725,19.1407809 20.4365795,19.5531701 C21.1109408,20.3850405 22.1685658,20.928846 23.2821728,21 L28.9966372,20.9228358 Z"/>
      <path d="M10.0629093,5.74701892 C10.0650833,5.78812479 10.0689413,5.82074515 10.0689413,5.8622172 C10.0689413,7.11411094 9.07077902,8.13821774 7.79830491,8.24370988 C7.72566659,8.24973307 7.65274832,8.25167767 7.57984318,8.25145038 C6.86143419,8.24920694 6.21446936,7.95727785 5.76021085,7.48883261 L12.214405,19.364307 L2.05639143,19.364307 C1.94189181,19.364307 1.82008725,19.2923781 1.72691196,19.1929175 C1.6337323,19.0934528 1.56918191,18.9664564 1.56918191,18.8563259 L1.56918191,3.87775011 C1.56918191,3.76757326 1.63373667,3.67562172 1.72691196,3.61121439 C1.82009162,3.54680706 1.94189181,3.50993974 2.05639143,3.50993974 L7.27096629,3.50993974 L7.8677413,3.50993974 L7.88871569,3.50993974 C9.07575688,3.69868326 10.0012021,4.58139026 10.0629093,5.74701892 Z M2.05639143,2 C1.48413393,2 0.970036069,2.1941143 0.599001494,2.52588654 C0.227971293,2.85765877 0,3.32709735 0,3.87775011 L0,18.8563259 C0,19.4069787 0.227971293,19.911462 0.599001494,20.2782748 C0.970036069,20.6450919 1.48413393,20.8742468 2.05639143,20.8742468 L13.0798272,20.8742468 L14.23708,23 C15.8358579,22.5345937 17,21.101053 17,19.4106658 C17,18.7384548 16.8149661,18.1055988 16.4926778,17.5601947 L11.4300022,4.90219363 C11.2970258,4.37735936 11.0404121,3.89411501 10.7076695,3.47897776 C10.0364584,2.64155624 8.97291019,2.08582733 7.84590519,2 L2.05639143,2 Z"/>
    </g>
    <path fill-rule="nonzero" d="M45.872,7.592 L52.736,7.592 C53.5333373,7.592 54.334996,7.64833277 55.141,7.761 C55.947004,7.87366723 56.6706635,8.09899831 57.312,8.437 C57.9533365,8.77500169 58.4733313,9.2473303 58.872,9.854 C59.2706687,10.4606697 59.47,11.2666616 59.47,12.272 C59.47,13.3120052 59.1796696,14.1743299 58.599,14.859 C58.0183304,15.5436701 57.2513381,16.0333319 56.298,16.328 L56.298,16.38 C56.9046697,16.4666671 57.4549975,16.6356654 57.949,16.887 C58.4430025,17.1383346 58.8676649,17.458998 59.223,17.849 C59.5783351,18.2390019 59.8513324,18.6939974 60.042,19.214 C60.2326676,19.7340026 60.328,20.2886637 60.328,20.878 C60.328,21.8486715 60.1200021,22.6589968 59.704,23.309 C59.2879979,23.9590033 58.75067,24.4833313 58.092,24.882 C57.43333,25.2806687 56.6923374,25.5666658 55.869,25.74 C55.0456625,25.9133342 54.2266707,26 53.412,26 L45.872,26 L45.872,7.592 Z M49.928,14.95 L52.866,14.95 C53.1780016,14.95 53.4856651,14.9153337 53.789,14.846 C54.0923348,14.7766663 54.3653321,14.6640008 54.608,14.508 C54.8506679,14.3519992 55.0456659,14.1440013 55.193,13.884 C55.3403341,13.6239987 55.414,13.3120018 55.414,12.948 C55.414,12.5666648 55.3316675,12.2503346 55.167,11.999 C55.0023325,11.7476654 54.7900013,11.5526674 54.53,11.414 C54.2699987,11.2753326 53.975335,11.175667 53.646,11.115 C53.316665,11.054333 52.9960016,11.024 52.684,11.024 L49.928,11.024 L49.928,14.95 Z M49.928,22.568 L53.568,22.568 C53.8800016,22.568 54.1963317,22.5333337 54.517,22.464 C54.8376683,22.3946663 55.1279987,22.2733342 55.388,22.1 C55.6480013,21.9266658 55.8603325,21.7013347 56.025,21.424 C56.1896675,21.1466653 56.272,20.8086687 56.272,20.41 C56.272,19.9766645 56.1636677,19.625668 55.947,19.357 C55.7303322,19.088332 55.457335,18.8846674 55.128,18.746 C54.798665,18.6073326 54.4433352,18.5120003 54.062,18.46 C53.6806648,18.4079997 53.325335,18.382 52.996,18.382 L49.928,18.382 L49.928,22.568 Z M70.156,24.414 L70.104,24.414 C69.6706645,25.0900034 69.0943369,25.5753319 68.375,25.87 C67.6556631,26.1646681 66.8973373,26.312 66.1,26.312 C65.5106637,26.312 64.9430027,26.2296675 64.397,26.065 C63.8509973,25.9003325 63.3700021,25.653335 62.954,25.324 C62.5379979,24.994665 62.2086679,24.5873358 61.966,24.102 C61.7233321,23.6166642 61.602,23.0533365 61.602,22.412 C61.602,21.6839964 61.736332,21.0686692 62.005,20.566 C62.273668,20.0633308 62.6376644,19.647335 63.097,19.318 C63.5563356,18.988665 64.0806637,18.7330009 64.67,18.551 C65.2593363,18.3689991 65.8703302,18.2346671 66.503,18.148 C67.1356698,18.0613329 67.7683302,18.0093334 68.401,17.992 C69.0336698,17.9746666 69.618664,17.966 70.156,17.966 C70.156,17.2726632 69.9090025,16.7223354 69.415,16.315 C68.9209975,15.9076646 68.3360034,15.704 67.66,15.704 C67.0186635,15.704 66.4336693,15.838332 65.905,16.107 C65.3763307,16.375668 64.9040021,16.7439977 64.488,17.212 L62.408,15.08 C63.1360036,14.4039966 63.9853285,13.8970017 64.956,13.559 C65.9266715,13.2209983 66.9319948,13.052 67.972,13.052 C69.1160057,13.052 70.0563296,13.1949986 70.793,13.481 C71.5296703,13.7670014 72.1189978,14.1873306 72.561,14.742 C73.0030022,15.2966694 73.3106658,15.976996 73.484,16.783 C73.6573342,17.589004 73.744,18.5206614 73.744,19.578 L73.744,26 L70.156,26 L70.156,24.414 Z M70.156,20.462 L69.194,20.462 C68.8993319,20.462 68.5310022,20.4749999 68.089,20.501 C67.6469978,20.5270001 67.2223354,20.6006661 66.815,20.722 C66.4076646,20.8433339 66.0610014,21.0253321 65.775,21.268 C65.4889986,21.5106679 65.346,21.8486645 65.346,22.282 C65.346,22.7500023 65.5453313,23.0966655 65.944,23.322 C66.3426687,23.5473345 66.7586645,23.66 67.192,23.66 C67.5733352,23.66 67.9416649,23.6080005 68.297,23.504 C68.6523351,23.3999995 68.9686653,23.2526676 69.246,23.062 C69.5233347,22.8713324 69.7443325,22.6286681 69.909,22.334 C70.0736675,22.0393319 70.156,21.6926687 70.156,21.294 L70.156,20.462 Z M89.448,26 L85.86,26 L85.86,24.336 L85.808,24.336 C85.6519992,24.5613345 85.4483346,24.7909988 85.197,25.025 C84.9456654,25.2590012 84.6510017,25.4713324 84.313,25.662 C83.9749983,25.8526676 83.6023354,26.0086661 83.195,26.13 C82.7876646,26.2513339 82.3673355,26.312 81.934,26.312 C80.9979953,26.312 80.1486705,26.1516683 79.386,25.831 C78.6233295,25.5103317 77.9690027,25.0596696 77.423,24.479 C76.8769973,23.8983304 76.4566681,23.2093373 76.162,22.412 C75.8673319,21.6146627 75.72,20.7393381 75.72,19.786 C75.72,18.9019956 75.854332,18.057004 76.123,17.251 C76.391668,16.444996 76.7729975,15.7300031 77.267,15.106 C77.7610025,14.4819969 78.3633298,13.9836685 79.074,13.611 C79.7846702,13.2383315 80.5906622,13.052 81.492,13.052 C82.3066707,13.052 83.0649965,13.1776654 83.767,13.429 C84.4690035,13.6803346 85.0453311,14.1093303 85.496,14.716 L85.548,14.716 L85.548,6.344 L89.448,6.344 L89.448,26 Z M85.86,19.682 C85.86,18.7286619 85.5870027,17.9573363 85.041,17.368 C84.4949973,16.7786637 83.7280049,16.484 82.74,16.484 C81.7519951,16.484 80.9850027,16.7786637 80.439,17.368 C79.8929973,17.9573363 79.62,18.7286619 79.62,19.682 C79.62,20.6353381 79.8929973,21.4066637 80.439,21.996 C80.9850027,22.5853363 81.7519951,22.88 82.74,22.88 C83.7280049,22.88 84.4949973,22.5853363 85.041,21.996 C85.5870027,21.4066637 85.86,20.6353381 85.86,19.682 Z M105.828,24.934 C105.828,27.326012 105.225673,29.1416605 104.021,30.381 C102.816327,31.6203395 100.983346,32.24 98.522,32.24 C97.3953277,32.24 96.2860055,32.1143346 95.194,31.863 C94.1019945,31.6116654 93.0966713,31.1220036 92.178,30.394 L94.336,27.17 C94.9426697,27.6726692 95.5796633,28.0713319 96.247,28.366 C96.9143367,28.6606681 97.6466627,28.808 98.444,28.808 C99.640006,28.808 100.519664,28.5176696 101.083,27.937 C101.646336,27.3563304 101.928,26.6153378 101.928,25.714 L101.928,24.492 L101.876,24.492 C101.425331,25.0986697 100.866337,25.5276654 100.199,25.779 C99.5316633,26.0303346 98.9033363,26.156 98.314,26.156 C97.3779953,26.156 96.5286705,25.9956683 95.766,25.675 C95.0033295,25.3543317 94.3490027,24.9036696 93.803,24.323 C93.2569973,23.7423304 92.8366681,23.0533373 92.542,22.256 C92.2473319,21.4586627 92.1,20.5833381 92.1,19.63 C92.1,18.7979958 92.234332,17.9833373 92.503,17.186 C92.771668,16.3886627 93.1529975,15.6866697 93.647,15.08 C94.1410025,14.4733303 94.7433298,13.9836685 95.454,13.611 C96.1646702,13.2383315 96.9706622,13.052 97.872,13.052 C98.4266694,13.052 98.9336644,13.1126661 99.393,13.234 C99.8523356,13.3553339 100.263998,13.5113324 100.628,13.702 C100.992002,13.8926676 101.303999,14.1049988 101.564,14.339 C101.824001,14.5730012 102.031999,14.8026655 102.188,15.028 L102.24,15.028 L102.24,13.364 L105.828,13.364 L105.828,24.934 Z M96,19.604 C96,20.0200021 96.0779992,20.4143315 96.234,20.787 C96.3900008,21.1596685 96.6109986,21.4889986 96.897,21.775 C97.1830014,22.0610014 97.5123315,22.2906658 97.885,22.464 C98.2576685,22.6373342 98.6693311,22.724 99.12,22.724 C99.5533355,22.724 99.9606648,22.6373342 100.342,22.464 C100.723335,22.2906658 101.056999,22.0610014 101.343,21.775 C101.629001,21.4889986 101.849999,21.1596685 102.006,20.787 C102.162001,20.4143315 102.24,20.0200021 102.24,19.604 C102.24,19.1879979 102.162001,18.7936685 102.006,18.421 C101.849999,18.0483315 101.629001,17.7190014 101.343,17.433 C101.056999,17.1469986 100.723335,16.9173342 100.342,16.744 C99.9606648,16.5706658 99.5533355,16.484 99.12,16.484 C98.6693311,16.484 98.2576685,16.5706658 97.885,16.744 C97.5123315,16.9173342 97.1830014,17.1469986 96.897,17.433 C96.6109986,17.7190014 96.3900008,18.0483315 96.234,18.421 C96.0779992,18.7936685 96,19.1879979 96,19.604 Z M120.908,23.816 C120.283997,24.6133373 119.495338,25.2286645 118.542,25.662 C117.588662,26.0953355 116.600672,26.312 115.578,26.312 C114.607328,26.312 113.693004,26.1560016 112.835,25.844 C111.976996,25.5319984 111.23167,25.0856696 110.599,24.505 C109.96633,23.9243304 109.468002,23.2266707 109.104,22.412 C108.739998,21.5973293 108.558,20.6873384 108.558,19.682 C108.558,18.6766616 108.739998,17.7666707 109.104,16.952 C109.468002,16.1373293 109.96633,15.4396696 110.599,14.859 C111.23167,14.2783304 111.976996,13.8320016 112.835,13.52 C113.693004,13.2079984 114.607328,13.052 115.578,13.052 C116.479338,13.052 117.29833,13.2079984 118.035,13.52 C118.77167,13.8320016 119.395664,14.2783304 119.907,14.859 C120.418336,15.4396696 120.812665,16.1373293 121.09,16.952 C121.367335,17.7666707 121.506,18.6766616 121.506,19.682 L121.506,20.904 L112.458,20.904 C112.614001,21.6493371 112.951997,22.2429978 113.472,22.685 C113.992003,23.1270022 114.63333,23.348 115.396,23.348 C116.037337,23.348 116.578998,23.2050014 117.021,22.919 C117.463002,22.6329986 117.848665,22.2646689 118.178,21.814 L120.908,23.816 Z M117.606,18.252 C117.623333,17.59333 117.406669,17.0300023 116.956,16.562 C116.505331,16.0939977 115.92467,15.86 115.214,15.86 C114.780664,15.86 114.399335,15.9293326 114.07,16.068 C113.740665,16.2066674 113.459001,16.3843322 113.225,16.601 C112.990999,16.8176677 112.809001,17.0689986 112.679,17.355 C112.548999,17.6410014 112.475333,17.9399984 112.458,18.252 L117.606,18.252 Z M123.95,23.764 C123.95,23.434665 124.010666,23.1226681 124.132,22.828 C124.253334,22.5333319 124.422332,22.2776677 124.639,22.061 C124.855668,21.8443322 125.111332,21.6753339 125.406,21.554 C125.700668,21.4326661 126.012665,21.372 126.342,21.372 C126.671335,21.372 126.983332,21.4326661 127.278,21.554 C127.572668,21.6753339 127.828332,21.8443322 128.045,22.061 C128.261668,22.2776677 128.430666,22.5333319 128.552,22.828 C128.673334,23.1226681 128.734,23.434665 128.734,23.764 C128.734,24.093335 128.673334,24.4053319 128.552,24.7 C128.430666,24.9946681 128.261668,25.2503322 128.045,25.467 C127.828332,25.6836677 127.572668,25.8526661 127.278,25.974 C126.983332,26.0953339 126.671335,26.156 126.342,26.156 C126.012665,26.156 125.700668,26.0953339 125.406,25.974 C125.111332,25.8526661 124.855668,25.6836677 124.639,25.467 C124.422332,25.2503322 124.253334,24.9946681 124.132,24.7 C124.010666,24.4053319 123.95,24.093335 123.95,23.764 Z"/>
  </g>
</svg>
