<?xml version="1.0" standalone="no"?>
<!DOCTYPE svg PUBLIC "-//W3C//DTD SVG 20010904//EN"
 "http://www.w3.org/TR/2001/REC-SVG-20010904/DTD/svg10.dtd">
<svg version="1.0" xmlns="http://www.w3.org/2000/svg"
 width="400.000000pt" height="400.000000pt" viewBox="0 0 400.000000 400.000000"
 preserveAspectRatio="xMidYMid meet">
<metadata>
Created by potrace 1.11, written by Peter Selinger 2001-2013
</metadata>
<g transform="translate(0.000000,400.000000) scale(0.100000,-0.100000)"
fill="#000000" stroke="none">
<path d="M885 3214 c-46 -24 -73 -53 -89 -98 -9 -23 -56 -185 -106 -361 -51
-176 -139 -484 -196 -685 -104 -362 -111 -397 -88 -455 15 -38 55 -83 87 -98
29 -14 313 -97 854 -251 100 -28 185 -54 188 -58 5 -5 15 -43 50 -197 6 -22
10 -23 58 -18 125 12 240 105 290 235 15 42 17 160 3 232 -2 14 -7 57 -11 95
-7 79 -12 127 -19 200 -3 28 -8 77 -11 110 -3 33 -8 76 -10 95 -2 19 -7 67
-10 105 -4 39 -8 81 -10 95 -4 22 -9 73 -20 195 -5 49 -16 149 -21 190 -2 17
-6 68 -9 115 -4 47 -11 108 -16 135 -18 97 -103 209 -192 253 -34 17 -231 78
-392 122 -16 5 -70 20 -120 34 -103 30 -167 33 -210 10z m385 -210 c146 -41
272 -81 280 -87 74 -55 109 -113 114 -187 8 -117 -82 -216 -205 -227 -54 -5
-140 15 -159 36 -18 21 -82 74 -76 63 4 -7 18 -63 32 -125 26 -120 55 -250 80
-362 8 -38 17 -81 20 -95 3 -14 7 -33 10 -42 3 -9 6 -25 8 -35 2 -10 16 -72
31 -138 33 -146 33 -149 45 -205 5 -25 16 -76 25 -115 8 -38 17 -80 20 -91 5
-21 2 -21 -113 13 -64 18 -148 42 -187 53 -38 10 -101 28 -140 40 -38 12 -78
23 -88 25 -13 3 -246 69 -390 111 -47 14 -45 26 118 594 183 635 226 786 233
818 5 25 37 43 62 37 8 -3 134 -39 280 -81z"/>
<path d="M2352 3014 c-141 -29 -249 -134 -280 -271 -10 -41 -9 -86 3 -173 9
-69 13 -102 19 -165 3 -27 8 -70 11 -95 2 -25 7 -67 10 -95 3 -27 8 -72 10
-100 3 -27 7 -66 10 -85 2 -19 7 -60 10 -90 3 -30 8 -71 10 -90 3 -19 7 -62
10 -95 3 -33 12 -114 20 -180 16 -137 21 -181 30 -280 9 -94 22 -141 53 -195
40 -70 127 -146 187 -162 11 -3 103 -29 205 -57 102 -28 217 -60 255 -71 143
-40 214 -32 273 33 19 20 58 125 77 207 10 43 42 165 197 730 22 80 52 192 68
250 16 58 38 139 50 180 40 143 30 213 -42 276 -38 33 -16 26 -673 204 -203
55 -377 104 -385 109 -9 5 -25 52 -40 118 l-25 110 -63 -13z m608 -499 c234
-64 430 -117 435 -119 38 -9 54 -20 59 -40 4 -15 -20 -117 -60 -262 -35 -132
-76 -282 -90 -334 -14 -52 -61 -223 -103 -380 -43 -157 -86 -316 -96 -355 -21
-81 -30 -95 -59 -95 -11 0 -95 21 -186 45 -91 25 -208 57 -260 71 -109 30
-135 41 -174 81 -119 117 -72 315 88 369 87 29 200 -3 255 -72 25 -32 25 -33
5 53 -17 74 -16 70 -37 163 -8 36 -43 187 -77 335 -34 149 -66 286 -70 305 -4
19 -24 107 -44 194 -42 185 -39 166 -23 161 6 -2 203 -57 437 -120z"/>
</g>
</svg>
